<?xml version="1.0" encoding="utf-8"?>
<!-- Generator: Adobe Illustrator 25.2.3, SVG Export Plug-In . SVG Version: 6.00 Build 0)  -->
<svg version="1.1" id="Слой_1" xmlns="http://www.w3.org/2000/svg" xmlns:xlink="http://www.w3.org/1999/xlink" x="0px" y="0px"
	 viewBox="0 0 841.89 595.28" style="enable-background:new 0 0 841.89 595.28;" xml:space="preserve">
<style type="text/css">
	.st0{fill:#CBCBCB;}
</style>
<g>
	<path class="st0" d="M417.84,528.21c-23.99,0-47.99,0.01-71.98,0c-11.64,0-23.26-0.88-34.88-1.28c-7.79-0.27-15.65-0.05-23.39-0.84
		c-8.64-0.88-17.33-0.17-25.89-1.09c-7.67-0.82-15.32-0.12-22.91-0.88c-9.96-0.99-19.95-0.42-29.89-1.04
		c-9.76-0.62-19.54-1.26-29.29-2c-12.07-0.92-24.11-2.11-36.19-2.97c-11.9-0.84-23.75-2.44-35.69-2.99
		c-3.61-0.16-7.26-0.95-10.65-2.43c-3.96-1.73-7.85-3.63-11.84-5.32c-2.26-0.96-3.38-2.34-3.28-4.92
		c0.34-9.11-0.23-18.18,1.61-27.32c1.29-6.42,1.72-13.14,2.55-19.71c1.22-9.7,2.08-19.44,3.54-29.11c0.73-4.88,1.43-9.84,1.4-14.86
		c-0.08-15.99-0.58-32.01,0.12-47.98c1.64-37.62-0.15-75.27,1.11-112.86c0.58-17.31,0.34-34.6,0.66-51.9c0.05-3,0.89-5.01,3.56-6.47
		c2.33-1.27,4.59-2.76,6.62-4.45c3.51-2.93,7.7-3.78,11.98-4.42c8.36-1.25,16.71-2.72,25.08-3.72c12.69-1.52,25.22-3.98,37.9-5.53
		c6.74-0.82,13.4-2.29,20.18-2.94c2.68-0.25,4.59-1.96,6.18-3.92c5.25-6.48,11.57-11.95,17.11-18.13
		c4.68-5.22,10.48-8.62,16.49-11.86c14.92-8.05,29.82-16.14,44.76-24.15c14.5-7.77,29.09-15.37,43.56-23.2
		c7.32-3.96,14.52-8.12,21.96-11.85c2.46-1.23,4.91-1.82,7.65-1.82c41.99,0.04,83.98,0.05,125.96,0.01c2.57,0,4.74,0.64,7.04,1.9
		c14.89,8.13,29.91,16.02,44.85,24.07c14.78,7.97,29.51,16.05,44.26,24.07c8.33,4.52,16.51,9.36,25.06,13.41
		c6.13,2.9,10.55,7.54,14.83,12.36c2.43,2.73,4.84,5.48,7.41,8.08c6.45,6.51,13.22,12.73,19.34,19.53
		c10.03,11.15,21.18,21.21,31.22,32.31c7.38,8.16,15.16,15.9,22.99,23.6c3.85,3.78,6.23,8.02,7.71,13.09
		c3.2,11.01,6.6,21.96,9.97,32.92c7.25,23.53,14.56,47.04,21.8,70.57c1.77,5.76,1.69,11.81,2.49,17.71c1.09,8.04,1.8,16.14,2.7,24.2
		c0.79,7.08,1.5,14.18,2.41,21.25c0.97,7.56,1.47,15.17,2.62,22.71c1.1,7.2,1.68,14.49,2.31,21.76c0.58,6.61,0.75,13.48,2.47,19.69
		c2.22,8,0.84,15.82,1.52,23.68c0.17,1.95-0.86,3.03-2.59,3.77c-4.9,2.08-9.69,4.43-14.66,6.33c-3.88,1.48-8.1,1.74-12.23,1.88
		c-6.98,0.23-13.89,1-20.8,1.87c-3.95,0.49-7.96,0.7-11.9,0.9c-6.14,0.31-12.26,0.94-18.37,1.45c-5.77,0.48-11.62,0.33-17.32,1.59
		c-0.49,0.11-0.99,0.21-1.48,0.18c-8-0.5-15.91,0.95-23.89,1.25c-9.97,0.37-19.96,0.35-29.88,1.07c-6.82,0.49-13.65,0.14-20.4,0.89
		c-9.14,1.02-18.33,0.17-27.39,1.08c-7.99,0.81-15.99,0.11-23.9,0.93c-8.31,0.86-16.67,0.15-24.89,1.04
		c-12.15,1.3-24.28,0.6-36.41,0.74C451.84,528.36,434.84,528.21,417.84,528.21z"/>
</g>
</svg>
